<svg width="213" height="165" viewBox="0 0 213 165" fill="none" xmlns="http://www.w3.org/2000/svg">
<path d="M93.0321 31.4497L81.3048 20.2617C79.922 18.7019 77.4613 18.4955 75.8083 19.8005C74.1553 21.1054 73.9366 23.4274 75.3195 24.9873C75.4578 25.1431 75.6094 25.2882 75.7735 25.4208L87.5008 36.6087C89.1371 37.9319 91.6005 37.7523 93.0026 36.2082C94.2429 34.842 94.2558 32.8295 93.0321 31.4497Z" fill="#FEFEFE"/>
<path d="M192.463 20.8408C191.08 19.281 188.62 19.0746 186.967 20.3796C186.802 20.5101 186.648 20.6532 186.507 20.808L174.652 31.8746C172.999 33.1795 172.78 35.5016 174.163 37.0614C175.546 38.6213 178.006 38.8276 179.659 37.5227C179.824 37.3922 179.978 37.2491 180.119 37.0943L191.974 26.0277C193.627 24.7228 193.846 22.4007 192.463 20.8408Z" fill="#FEFEFE"/>
<path d="M121.805 18.536C121.781 18.4288 121.752 18.323 121.718 18.2183L117.43 3.0043C116.984 1.02617 114.923 -0.236277 112.827 0.184032C110.731 0.60434 109.393 2.5496 109.838 4.52773C109.862 4.63495 109.891 4.74066 109.926 4.84536L114.214 20.0594C114.66 22.0375 116.72 23.3 118.817 22.8797C120.913 22.4594 122.251 20.5141 121.805 18.536Z" fill="#FEFEFE"/>
<path d="M175.123 96.8782C174.394 96.1904 173.637 95.5162 172.851 94.8551L173.494 93.7626C174.292 92.3783 175.007 90.9529 175.638 89.4938C184.77 67.97 173.684 43.535 150.875 34.9169C150.832 34.9007 150.79 34.8845 150.747 34.8688C130.126 27.1126 106.602 34.881 95.6048 53.0771C68.7253 45.9931 40.8494 60.8126 33.3419 86.1783C32.0925 90.3991 31.4659 94.762 31.4799 99.1442C31.4799 99.7511 31.4799 100.385 31.4799 101.046C12.8185 102.295 -1.23706 117.583 0.086282 135.193C1.33673 151.836 15.9428 164.772 33.6238 164.896H33.731H145.215C168.53 164.934 187.462 147.131 187.503 125.13C187.522 114.534 183.067 104.367 175.123 96.8782ZM120.753 41.7071C129.448 38.4442 139.136 38.4442 147.831 41.7071C166.68 48.8037 175.879 68.9634 168.391 86.7625C167.849 87.988 167.234 89.1837 166.547 90.3435V90.6672C155.784 84.7626 142.81 83.6378 131.087 87.592C128.923 79.4458 124.515 71.9844 118.309 65.9646C122.645 58.3687 132.304 55.0178 140.82 58.1552C142.856 58.787 145.049 57.7415 145.719 55.8205C146.333 54.0584 145.453 52.1409 143.672 51.3575C132.108 46.9849 118.886 51.0585 112.285 61.0281C109.359 58.9524 106.203 57.1816 102.873 55.7477C107.06 49.3601 113.336 44.4317 120.753 41.7071ZM153.36 156.642C150.706 157.241 147.986 157.54 145.258 157.533H33.7739C19.364 157.521 7.69295 146.487 7.70581 132.889C7.71224 126.372 10.4559 120.123 15.3361 115.512L15.2932 115.532C20.1797 110.913 26.8147 108.321 33.731 108.33H34.6743H35.5104C37.6485 108.467 39.5003 106.943 39.6455 104.925C39.6686 104.609 39.6477 104.291 39.5839 103.98C39.4981 103.278 39.4269 102.517 39.3695 101.694C39.3695 100.925 39.3695 100.075 39.3695 99.1244C39.6874 76.8466 59.083 59.0297 82.6914 59.3297C103.436 59.5932 120.985 73.873 124.312 93.1966C124.619 95.198 126.587 96.5859 128.709 96.2961C129.118 96.2399 129.516 96.1226 129.886 95.9481C132.26 94.8278 134.764 93.9725 137.347 93.3989C155.854 89.2262 174.441 100.001 178.863 117.466C183.285 134.93 171.867 152.47 153.36 156.642Z" fill="#FEFEFE"/>
<path d="M212.826 55.5393C212.235 53.7281 210.276 52.6427 208.311 53.0367L192.188 57.083C190.118 57.5888 188.872 59.579 189.401 61.5339C189.936 63.4923 192.051 64.6713 194.127 64.167C194.131 64.166 194.136 64.165 194.139 64.164L210.262 60.1177C212.31 59.5219 213.458 57.4719 212.826 55.5393Z" fill="#FEFEFE"/>
<path d="M210.091 91.3348L194.011 87.1874C191.945 86.6285 189.79 87.7564 189.198 89.7062C188.606 91.656 189.801 93.6893 191.867 94.2482L207.947 98.3956C210.013 98.9545 212.168 97.8266 212.76 95.8768C213.352 93.927 212.157 91.8937 210.091 91.3348Z" fill="#FEFEFE"/>
<path d="M155.303 0.546169C153.236 -0.0127256 151.082 1.11518 150.489 3.06499L146.094 18.2386C145.481 20.1763 146.649 22.2166 148.702 22.7952C148.747 22.8079 148.793 22.82 148.839 22.8311C150.895 23.4022 153.052 22.2925 153.657 20.3523C153.667 20.3224 153.675 20.2921 153.684 20.2617L157.972 5.08813C158.563 3.13832 157.369 1.10506 155.303 0.546169Z" fill="#FEFEFE"/>
</svg>
